<?xml version="1.0" encoding="UTF-8"?>
<svg width="24px" height="24px" viewBox="0 0 48 48" version="1.1" xmlns="http://www.w3.org/2000/svg" xmlns:xlink="http://www.w3.org/1999/xlink">
    <!-- Generator: Sketch 43.2 (39069) - http://www.bohemiancoding.com/sketch -->
    <title>theicons.co/svg/ui-90</title>
    <desc>Created with Sketch.</desc>
    <defs></defs>
    <g id="The-Icons" stroke="none" stroke-width="1" fill="none" fill-rule="evenodd">
        <path d="M8,33.9809686 L8,36.69352 C8.69995703,37.1206803 14.2923574,39.9940606 23.9999995,39.9940594 C33.7076416,39.9940582 39.3007754,37.1237339 40,36.6968073 L40,33.9809686 C40,30.5487061 32.385913,27.8794393 31.8431579,27.6751094 C30.1400395,30.7317024 27.6221518,32.9999994 24,33 C20.3797677,33.0000006 17.8626294,30.7341073 16.1595504,27.6799693 C15.6223029,27.8818763 8,30.541748 8,33.9809686 Z M13,14.3572973 C13,8.63711995 17.9248678,4 24,4 C30.0751322,4 35,8.63711995 35,14.3572973 C35,16.7846656 34.5760155,20.5089933 33.4272375,23.9924387 C37.4330556,25.522778 44,28.0014648 44,33.9809686 L44,37.9952691 C44,40.2053804 35.369873,43.9999986 24,44 C12.630127,44.0000014 4,40.1978404 4,37.9952691 L4,33.9809686 C4,27.980835 10.5706199,25.5249277 14.5744604,23.9975863 C13.4244023,20.5126626 13,16.7858611 13,14.3572973 Z M23.9999993,29 C27.9391574,28.9999994 31,21.7652671 31,14.3572973 C31,10.9018914 27.9180372,8 24,8 C20.0819628,8 17,10.9018914 17,14.3572973 C17,21.7652677 20.0608426,29.0000006 23.9999993,29 Z" id="Combined-Shape" fill="#000000"></path>
    </g>
</svg>