<?xml version="1.0" encoding="UTF-8"?>
<svg width="24px" height="24px" viewBox="0 0 48 48" version="1.1" xmlns="http://www.w3.org/2000/svg" xmlns:xlink="http://www.w3.org/1999/xlink">
    <!-- Generator: Sketch 43.2 (39069) - http://www.bohemiancoding.com/sketch -->
    <title>theicons.co/svg/grid-15</title>
    <desc>Created with Sketch.</desc>
    <defs></defs>
    <g id="The-Icons" stroke="none" stroke-width="1" fill="none" fill-rule="evenodd">
        <path d="M32.0085302,20 C30.9019504,20 30,19.1045695 30,18 C30,16.8877296 30.8992496,16 32.0085302,16 L35.370905,16 C32.3179969,11.9337531 28.6668016,10 24,10 C16.2680135,10 10,16.2680135 10,24 C10,31.7319865 16.2680135,38 24,38 C31.0806413,38 37.0242981,32.7134686 37.8917628,25.7510783 C38.0283285,24.6549836 39.0275972,23.8771317 40.1236919,24.0136973 C41.2197866,24.150263 41.9976386,25.1495317 41.8610729,26.2456264 C40.7448658,35.2044571 33.1046246,42 24,42 C14.0588745,42 6,33.9411255 6,24 C6,14.0588745 14.0588745,6 24,6 C29.7219815,6 34.3110073,8.322017 38,12.8732085 L38,10.0085302 C38,8.90195036 38.8954305,8 40,8 C41.1122704,8 42,8.8992496 42,10.0085302 C42,10.0085302 41.9999985,17.9943142 42,18 C42,18.5547114 41.7763372,19.0535747 41.4114209,19.4135041 C41.0497149,19.7756697 40.5508656,20 39.9914698,20 L32.0085302,20 Z" id="Shape" fill="#000000" fill-rule="nonzero"></path>
    </g>
</svg>