<?xml version="1.0" encoding="UTF-8"?>
<svg width="24px" height="24px" viewBox="0 0 48 48" version="1.1" xmlns="http://www.w3.org/2000/svg" xmlns:xlink="http://www.w3.org/1999/xlink">
    <!-- Generator: Sketch 43.2 (39069) - http://www.bohemiancoding.com/sketch -->
    <title>theicons.co/svg/finance-13</title>
    <desc>Created with Sketch.</desc>
    <defs></defs>
    <g id="The-Icons" stroke="none" stroke-width="1" fill="none" fill-rule="evenodd">
        <path d="M42,12 L6,12 L6,16 L42,16 L42,12 Z M42,22 L6,22 L6,36 L42,36 L42,22 Z M2,12.0042577 C2,9.79276724 3.79309123,8 6.00180999,8 L41.99819,8 C44.2083286,8 46,9.78902751 46,12.0042577 L46,35.9957423 C46,38.2072328 44.2069088,40 41.99819,40 L6.00180999,40 C3.79167136,40 2,38.2109725 2,35.9957423 L2,12.0042577 Z M30,28 C30,26.8954305 30.8867064,26 31.9981014,26 L36.0018986,26 C37.1054196,26 38,26.8877296 38,28 C38,29.1045695 37.1132936,30 36.0018986,30 L31.9981014,30 C30.8945804,30 30,29.1122704 30,28 Z" id="Combined-Shape" fill="#000000"></path>
    </g>
</svg>