<?xml version="1.0" encoding="UTF-8"?>
<svg width="24px" height="24px" viewBox="0 0 48 48" version="1.1" xmlns="http://www.w3.org/2000/svg" xmlns:xlink="http://www.w3.org/1999/xlink">
    <!-- Generator: Sketch 43.2 (39069) - http://www.bohemiancoding.com/sketch -->
    <title>theicons.co/svg/finance-27</title>
    <desc>Created with Sketch.</desc>
    <defs></defs>
    <g id="The-Icons" stroke="none" stroke-width="1" fill="none" fill-rule="evenodd">
        <path d="M37.9629647,28.9799318 C39.0707699,28.9799318 39.9688234,29.8676614 39.9688234,30.9799318 C39.9688234,32.0845013 39.0717632,32.9799318 37.9629647,32.9799318 L34.9688234,32.9799318 L34.9688234,35.9740731 C34.9688234,37.0818783 34.0810937,37.9799318 32.9688234,37.9799318 C31.8642539,37.9799318 30.9688234,37.0828716 30.9688234,35.9740731 L30.9688234,32.9799318 L27.974682,32.9799318 C26.8668769,32.9799318 25.9688234,32.0922021 25.9688234,30.9799318 C25.9688234,29.8753623 26.8658835,28.9799318 27.974682,28.9799318 L30.9688234,28.9799318 L30.9688234,25.9857904 C30.9688234,24.8779853 31.856553,23.9799318 32.9688234,23.9799318 C34.0733929,23.9799318 34.9688234,24.8769919 34.9688234,25.9857904 L34.9688234,28.9799318 L37.9629647,28.9799318 Z M47.9688234,30.9799318 C47.9688234,39.264203 41.2530946,45.9799318 32.9688234,45.9799318 C26.0697615,45.9799318 20.2585464,41.3223058 18.5080561,34.9799318 L11.9688234,34.9799318 C11.0375114,34.9799318 10.2294553,34.337113 10.020041,33.4296508 L4.23501091,8.36118717 L1.10770841,6.79014097 C0.119283626,6.29709916 -0.282303617,5.09613319 0.210738195,4.10770841 C0.703780007,3.11928363 1.90474597,2.71769638 2.89317075,3.21073819 L6.86155454,5.19023038 C7.3959835,5.45681194 7.7833136,5.94828007 7.91760576,6.53021276 L8.50074028,9.05603578 L40.3117204,11.0066834 C41.4128513,11.0680907 42.1400283,12.0036535 41.9388675,13.0805194 L40.9662105,18.2874033 C45.174002,20.9442466 47.9688234,25.6357064 47.9688234,30.9799318 Z M13.1005524,28.9799318 L13.5622906,30.9799318 L17.9688234,30.9799318 C17.9688234,30.3018142 18.0138215,29.6342065 18.1009947,28.9799318 L13.1005524,28.9799318 Z M32.9688234,15.9799318 C34.4433322,15.9799318 35.8681496,16.1926865 37.2142519,16.5891726 L37.5410416,14.8397833 L9.43917173,13.1208128 L12.1770742,24.9799241 L19.2170697,24.9796678 C21.5317999,19.6820945 26.8179684,15.9799318 32.9688234,15.9799318 Z M13.9688234,44.9799318 C11.7596844,44.9799318 9.96882337,43.1890708 9.96882337,40.9799318 C9.96882337,38.7707928 11.7596844,36.9799318 13.9688234,36.9799318 C16.1779624,36.9799318 17.9688234,38.7707928 17.9688234,40.9799318 C17.9688234,43.1890708 16.1779624,44.9799318 13.9688234,44.9799318 Z M32.9688234,41.9799318 C39.0439556,41.9799318 43.9688234,37.055064 43.9688234,30.9799318 C43.9688234,24.9047995 39.0439556,19.9799318 32.9688234,19.9799318 C26.8936911,19.9799318 21.9688234,24.9047995 21.9688234,30.9799318 C21.9688234,37.055064 26.8936911,41.9799318 32.9688234,41.9799318 Z" id="Combined-Shape" fill="#000000"></path>
    </g>
</svg>