<?xml version="1.0" encoding="UTF-8"?>
<svg width="24px" height="24px" viewBox="0 0 48 48" version="1.1" xmlns="http://www.w3.org/2000/svg" xmlns:xlink="http://www.w3.org/1999/xlink">
    <!-- Generator: Sketch 43.2 (39069) - http://www.bohemiancoding.com/sketch -->
    <title>theicons.co/svg/tech-02</title>
    <desc>Created with Sketch.</desc>
    <defs></defs>
    <g id="The-Icons" stroke="none" stroke-width="1" fill="none" fill-rule="evenodd">
        <path d="M23.9996297,8.00022688 C25.6748006,8.00022688 26.4163713,7.82465491 28.1528506,7.17742415 C28.2202883,7.15227882 28.2202883,7.15227882 28.2885171,7.12683123 C30.4805057,6.30947041 31.7833552,6 33.9368855,6 C39.161699,6 43.9578546,11.1358543 45.9418135,17.3957582 C47.4641414,22.1990972 47.8705828,25.2757739 47.9992555,32.038684 C47.8721671,38.6080558 45.0736262,41.9675668 39.9878555,41.9999653 C36.8399802,41.9814332 34.663567,40.5667042 32.6519641,37.9968679 C32.3243122,37.5782903 31.3913221,36.2937421 31.3889105,36.2905254 C29.3183541,33.5287233 27.1776295,32.0217413 24.0058458,32.0000021 C20.8216407,32.0217337 18.6809106,33.5287163 16.6103488,36.2905254 C16.6079373,36.2937421 15.6749472,37.5782903 15.3472952,37.9968679 C13.3356923,40.5667042 11.1592792,41.9814332 7.98682972,41.999959 C2.92563311,41.9675668 0.127092286,38.6080558 0,31.9615143 C0.128676563,25.2757739 0.53511798,22.1990972 2.0574459,17.3957582 C4.04140471,11.1358543 8.8375604,6 14.0623738,6 C16.2159042,6 17.5187537,6.30947041 19.7107422,7.12683123 C19.7789711,7.15227882 19.7789711,7.15227882 19.8464087,7.17742415 C21.582888,7.82465491 22.3244588,8.00022688 23.9996297,8.00022688 Z M23.9995679,12.0002044 C21.9955999,12.0002044 20.6005044,11.7273115 18.4493906,10.9255357 C18.3809313,10.9000095 18.3809313,10.9000095 18.3131986,10.8747469 C16.5290529,10.2094648 15.6472204,10 14.0623738,10 C10.9532516,10 7.38725374,13.8185678 5.87052439,18.6042418 C4.47952298,22.9932115 4.12113436,25.7061386 3.99925553,31.961316 C4.08733325,36.5141705 5.31068932,37.9827495 7.98785549,38.0000347 C9.70054189,37.9899517 10.8659622,37.2323961 12.1975291,35.5313105 C12.4721204,35.1805182 13.3692087,33.9453999 13.4099066,33.8911152 C16.1549597,30.2296388 19.277735,28.0316478 23.9871997,28.0000872 C28.7215017,28.0316318 31.8442897,30.2296255 34.5893527,33.8911152 C34.6300507,33.9453999 35.5271389,35.1805182 35.8017303,35.5313105 C37.1332971,37.2323961 38.2987175,37.9899517 39.9868297,38.000041 C42.68857,37.9827495 43.9119261,36.5141705 44,32.0384857 C43.878125,25.7061386 43.5197364,22.9932115 42.128735,18.6042418 C40.6120056,13.8185678 37.0460077,10 33.9368855,10 C32.352039,10 31.4702064,10.2094648 29.6860607,10.8747469 C29.618328,10.9000095 29.618328,10.9000095 29.5498688,10.9255357 C27.3987549,11.7273115 26.0035359,12.0002044 23.9995679,12.0002044 Z M33.9996297,19 C32.8950602,19 31.9996297,18.1045695 31.9996297,17 C31.9996297,15.8954305 32.8950602,15 33.9996297,15 C35.1041992,15 35.9996297,15.8954305 35.9996297,17 C35.9996297,18.1045695 35.1041992,19 33.9996297,19 Z M33.9996297,27 C32.8950602,27 31.9996297,26.1045695 31.9996297,25 C31.9996297,23.8954305 32.8950602,23 33.9996297,23 C35.1041992,23 35.9996297,23.8954305 35.9996297,25 C35.9996297,26.1045695 35.1041992,27 33.9996297,27 Z M37.9996297,23 C36.8950602,23 35.9996297,22.1045695 35.9996297,21 C35.9996297,19.8954305 36.8950602,19 37.9996297,19 C39.1041992,19 39.9996297,19.8954305 39.9996297,21 C39.9996297,22.1045695 39.1041992,23 37.9996297,23 Z M29.9996297,23 C28.8950602,23 27.9996297,22.1045695 27.9996297,21 C27.9996297,19.8954305 28.8950602,19 29.9996297,19 C31.1041992,19 31.9996297,19.8954305 31.9996297,21 C31.9996297,22.1045695 31.1041992,23 29.9996297,23 Z M13.9996297,27 C10.6859212,27 7.99962968,24.3137085 7.99962968,21 C7.99962968,17.6862915 10.6859212,15 13.9996297,15 C17.3133382,15 19.9996297,17.6862915 19.9996297,21 C19.9996297,24.3137085 17.3133382,27 13.9996297,27 Z M13.9996297,23 C15.1041992,23 15.9996297,22.1045695 15.9996297,21 C15.9996297,19.8954305 15.1041992,19 13.9996297,19 C12.8950602,19 11.9996297,19.8954305 11.9996297,21 C11.9996297,22.1045695 12.8950602,23 13.9996297,23 Z" id="Combined-Shape" fill="#000000"></path>
    </g>
</svg>