<?xml version="1.0" encoding="UTF-8"?>
<svg width="24px" height="24px" viewBox="0 0 48 48" version="1.1" xmlns="http://www.w3.org/2000/svg" xmlns:xlink="http://www.w3.org/1999/xlink">
    <!-- Generator: Sketch 43.2 (39069) - http://www.bohemiancoding.com/sketch -->
    <title>theicons.co/svg/ui-71</title>
    <desc>Created with Sketch.</desc>
    <defs></defs>
    <g id="The-Icons" stroke="none" stroke-width="1" fill="none" fill-rule="evenodd">
        <path d="M10.0017433,40 L16,40.0011832 L16,27.9950893 C16,26.8932319 16.8945138,26 17.9940603,26 L30.0059397,26 C31.1072288,26 32,26.8926228 32,27.9950893 L32,40.0052777 L38,40.008845 L38,20.8324484 L24,6.84472504 L9.99990427,20.8325441 C9.99948969,24.6153564 10.0017433,40 10.0017433,40 Z M5.41421356,25.4142136 C4.63316498,26.1952621 3.36683502,26.1952621 2.58578644,25.4142136 C1.80473785,24.633165 1.80473785,23.366835 2.58578644,22.5857864 L22.5857864,2.58578644 C23.366835,1.80473785 24.633165,1.80473785 25.4142136,2.58578644 L45.4142136,22.5857864 C46.1952621,23.366835 46.1952621,24.633165 45.4142136,25.4142136 C44.633165,26.1952621 43.366835,26.1952621 42.5857864,25.4142136 L42,24.8289408 L42,40.008845 C42,42.2167938 40.2116102,44 37.9982567,44 L10.0017433,44 C7.79366224,44 6,42.2169374 6,40.008845 L6,24.8289408 L5.41421356,25.4142136 Z M28,40.0040521 L28,29.9968872 L20,30 L20,40.0020532 L28,40.0040521 Z" id="Combined-Shape" fill="#000000"></path>
    </g>
</svg>