<?xml version="1.0" encoding="UTF-8"?>
<svg width="24px" height="24px" viewBox="0 0 48 48" version="1.1" xmlns="http://www.w3.org/2000/svg" xmlns:xlink="http://www.w3.org/1999/xlink">
    <!-- Generator: Sketch 43.2 (39069) - http://www.bohemiancoding.com/sketch -->
    <title>theicons.co/svg/ui-34</title>
    <desc>Created with Sketch.</desc>
    <defs></defs>
    <g id="The-Icons" stroke="none" stroke-width="1" fill="none" fill-rule="evenodd">
        <path d="M15.0241161,38.9998546 C11.1004639,38.9998546 7.25873039,41.5578097 7.17312098,41.6198108 C5.85074931,42.5775165 4,41.6327483 4,40 L4,12 C4,11.5738253 4.13613418,11.1587931 4.3885544,10.8154144 C4.88420972,10.141152 8.29614258,6 15,6 C18.2398181,6 21.4055781,7.43867015 24,10.4657872 C26.5535611,7.48634568 29.7601819,6 33,6 C39.5710449,6 43.1157903,10.141152 43.6114456,10.8154144 C43.8638658,11.1587931 44,11.5738253 44,12 L44,40 C44,41.6327483 42.1492507,42.5775165 40.826879,41.6198108 C40.7412696,41.5578097 37.2136494,38.9998546 32.9758839,38.9998546 C28.7572021,38.9998546 25.1264348,41.6540034 25.0800555,41.6835959 C24.7378167,41.9049825 24.3646722,42.0049875 24,42.0035685 C23.6353278,42.0049875 23.2621833,41.9049825 22.9199445,41.6835959 C22.8735652,41.6540034 19.3807737,38.9998546 15.0241161,38.9998546 Z M8,12.7803558 C7.99999999,13.1845856 8,35.8424683 8,36.579895 C10.2599171,35.559727 12.5280664,35.0296634 15.0238777,35.0001425 C17.4930599,35.0296239 19.7463959,35.6556016 21.9999995,36.6766663 C21.9999995,35.7508279 22,14.5307617 22,14.5307617 C22,14.5307617 19.6429443,10 15,10 C10.6397705,10 8.34913985,12.4036803 8,12.7803558 Z M40,12.7803558 C39.6508601,12.4036803 37.2943115,10 33,10 C28.447998,10 26,14.5307617 26,14.5307617 C26,14.5307617 26.0000005,35.7508279 26.0000005,36.6766663 C28.2536041,35.6556016 30.5069401,35.0296239 32.9761223,35.0001425 C35.4719336,35.0296634 37.7400829,35.559727 40,36.579895 C40,35.8424683 40,13.1845856 40,12.7803558 Z" id="Combined-Shape" fill="#000000"></path>
    </g>
</svg>