<?xml version="1.0" encoding="UTF-8"?>
<svg width="24px" height="24px" viewBox="0 0 48 48" version="1.1" xmlns="http://www.w3.org/2000/svg" xmlns:xlink="http://www.w3.org/1999/xlink">
    <!-- Generator: Sketch 43.2 (39069) - http://www.bohemiancoding.com/sketch -->
    <title>theicons.co/svg/tech-18</title>
    <desc>Created with Sketch.</desc>
    <defs></defs>
    <g id="The-Icons" stroke="none" stroke-width="1" fill="none" fill-rule="evenodd">
        <path d="M34,38 C37.3137085,38 40,35.3137085 40,32 C40,28.6862915 37.3137085,26 34,26 L34,38 Z M31,44 C29.3431458,44 28,42.6582294 28,41.0089096 L28,22.9910904 C28,21.3391568 29.3465171,20 31,20 C32.3080586,20 33.5895575,20.8363038 34,22 C36.2512118,22 38.3286789,22.7438896 40,23.9992676 C39.9998695,21.0852432 39.2207307,18.3531863 37.8594823,15.9999955 L10.1405151,16 C8.77926931,18.3531863 8.00013054,21.0852432 8.00000002,23.9992676 C9.67132107,22.7438896 11.7487882,22 14,22 C14.4109162,20.8351664 15.6942185,20 17,20 C18.6568542,20 20,21.3417706 20,22.9910904 L20,41.0089096 C20,42.6608432 18.6534829,44 17,44 C15.6919414,44 14.4104425,43.1636962 14,42 C8.4771525,42 4,37.5228475 4,32 L4,24 C4,12.954305 12.954305,4 24,4 C35.045695,4 44,12.954305 44,24 L44,32 C44,37.5228475 39.5228475,42 34,42 C33.5890838,43.1648336 32.3057815,44 31,44 Z M34.5832976,12 C31.7627648,9.51054636 28.0577859,8 24,8 C19.9422141,8 16.2372352,9.51054636 13.4167024,12 L34.5832976,12 Z M8,32 C8,35.3137085 10.6862915,38 14,38 L14,26 C10.6862915,26 8,28.6862915 8,32 Z" id="Combined-Shape" fill="#000000"></path>
    </g>
</svg>