<?xml version="1.0" encoding="UTF-8"?>
<svg width="24px" height="24px" viewBox="0 0 48 48" version="1.1" xmlns="http://www.w3.org/2000/svg" xmlns:xlink="http://www.w3.org/1999/xlink">
    <!-- Generator: Sketch 43.2 (39069) - http://www.bohemiancoding.com/sketch -->
    <title>theicons.co/svg/ui-38</title>
    <desc>Created with Sketch.</desc>
    <defs></defs>
    <g id="The-Icons" stroke="none" stroke-width="1" fill="none" fill-rule="evenodd">
        <path d="M24,44 C12.954305,44 4,35.045695 4,24 C4,12.954305 12.954305,4 24,4 C35.045695,4 44,12.954305 44,24 C44,35.045695 35.045695,44 24,44 Z M8.12378751,26 C8.83483598,31.7021534 12.5464009,36.4724843 17.6286215,38.6811321 C15.7428393,35.3168455 14.3749513,30.7235079 14.0660079,26 L8.12378751,26 L8.12378751,26 Z M8.12378751,22 L14.0644148,22 C14.3665911,17.2711321 15.7077716,12.6963634 17.5752788,9.34216595 C12.5204421,11.5609382 8.83234591,16.3178153 8.12378751,22 Z M39.8762125,22 C39.1676541,16.3178153 35.4795579,11.5609382 30.4247212,9.34216595 C32.2922284,12.6963634 33.6334089,17.2711321 33.9355852,22 L39.8762125,22 Z M30.3713785,38.6811321 C35.4535991,36.4724843 39.165164,31.7021534 39.8762125,26 L33.9339921,26 C33.6250487,30.7235079 32.2571607,35.3168455 30.3713785,38.6811321 Z M20.651594,35.8371819 C21.9496786,38.446777 23.471419,40 24,40 C24.528581,40 26.0503214,38.446777 27.348406,35.8371819 C28.7381787,33.043262 29.6715407,29.5963321 29.9283371,26 L18.0716629,26 C18.3284593,29.5963321 19.2618213,33.043262 20.651594,35.8371819 Z M20.616796,12.1572913 C19.2436374,14.9392941 18.3227527,18.3904677 18.0701895,22 L29.9298105,22 C29.6772473,18.3904677 28.7563626,14.9392941 27.383204,12.1572913 C26.089816,9.53690266 24.576148,8 24,8 C23.423852,8 21.910184,9.53690266 20.616796,12.1572913 Z" id="Combined-Shape" fill="#000000"></path>
    </g>
</svg>