<?xml version="1.0" encoding="UTF-8"?>
<svg width="24px" height="24px" viewBox="0 0 48 48" version="1.1" xmlns="http://www.w3.org/2000/svg" xmlns:xlink="http://www.w3.org/1999/xlink">
    <!-- Generator: Sketch 43.2 (39069) - http://www.bohemiancoding.com/sketch -->
    <title>theicons.co/svg/ui-93</title>
    <desc>Created with Sketch.</desc>
    <defs></defs>
    <g id="The-Icons" stroke="none" stroke-width="1" fill="none" fill-rule="evenodd">
        <path d="M28.9999242,4 C33.4182022,4 36.9999242,7.5253165 36.9999242,11.8740148 C36.9999242,13.5290923 36.6996782,15.8252699 36.0009704,18.0348152 C38.4184774,18.9162994 40.2963964,20.3396804 41.6477921,22.226289 C43.339907,24.5885569 43.9999321,27.3319197 43.9999321,29.9967472 C43.9999321,30.7246349 43.6043792,31.3950367 42.9672011,31.7470683 C42.1879062,32.1776175 40.8380921,32.7895725 39.0280236,33.3934888 C37.698139,33.8371952 36.323404,34.2023454 34.9133424,34.47144 C35.6271554,36.0364059 35.9999268,37.6287253 35.9999268,38.9956213 C35.9999268,39.7677924 35.555307,40.4709671 34.8576663,40.8021279 C33.9780623,41.2196644 32.4566395,41.8205135 30.4432883,42.4156411 C27.094822,43.4054159 23.5654472,44 19.9999634,44 C16.4344797,44 12.9051049,43.4054159 9.55663858,42.4156411 C7.54328737,41.8205135 6.02186458,41.2196644 5.14226051,40.8021279 C4.44461987,40.4709671 4,39.7677924 4,38.9956213 C4,36.5702179 5.15015767,33.4705162 7.2871992,31.0484936 C8.62604312,29.5311108 10.2861664,28.3181651 12.2598382,27.4614628 C11.3765339,24.8094985 10.9999242,21.9952885 10.9999242,19.9979983 C10.9999242,15.0280574 15.0293615,10.9991243 19.9999242,10.9991243 C20.3524773,10.9991243 20.7002957,11.019393 21.0422775,11.0588288 C21.4566942,7.09316241 24.8613062,4 28.9999242,4 Z M27.7381219,27.4671298 C29.5987539,28.2776939 31.1812325,29.4057665 32.4791035,30.8073787 C34.299038,30.5819461 36.0711159,30.1637527 37.7619132,29.5996303 C38.5593992,29.3335549 39.2865415,29.0517237 39.9330571,28.7693521 C39.7674683,27.2720483 39.285985,25.7978013 38.3958358,24.5551135 C37.4741223,23.2683604 36.1544717,22.2870578 34.3418494,21.6843403 C33.0926913,23.6191062 31.3490185,24.9973728 28.9999242,24.9973728 C28.8027742,24.9973728 28.6098885,24.9876648 28.4212015,24.9687348 C28.2401534,25.7975854 28.0137748,26.6402789 27.7381219,27.4671298 Z M28.9999242,20.9978732 C30.8880222,20.9978732 32.9999242,16.4066542 32.9999242,11.8740148 C32.9999242,9.74840043 31.2230407,7.99949957 28.9999242,7.99949957 C26.7768077,7.99949957 24.9999242,9.74840043 24.9999242,11.8740148 C24.9999242,12.0907204 25.0047516,12.30756 25.0141511,12.5240253 C27.4181384,14.1396237 28.9999242,16.8841111 28.9999242,19.9979983 C28.9999242,20.3122251 28.9906025,20.6466721 28.9714525,20.9975262 C28.9809486,20.9977573 28.9904392,20.9978732 28.9999242,20.9978732 Z M10.2867377,33.6944371 C9.18889459,34.9386809 8.46532153,36.4405358 8.16203824,37.7288274 C8.92140675,38.0187684 9.76883808,38.3077565 10.6906333,38.5802304 C13.6951893,39.4683487 16.8539737,40.0005004 19.9999634,40.0005004 C23.1459532,40.0005004 26.3047375,39.4683487 29.3092936,38.5802304 C30.229834,38.3081274 31.0762128,38.0195551 31.834787,37.7300115 C31.5292488,36.4519514 30.8054886,34.9530835 29.7115692,33.7102205 C28.7492611,32.6168884 27.5452109,31.7337389 26.0765232,31.1033306 C24.6667963,33.3702243 22.684879,34.9961217 19.9999242,34.9961217 C17.3129762,34.9961217 15.3301097,33.3678092 13.9201864,31.0982806 C12.4510656,31.72601 11.2475399,32.605509 10.2867377,33.6944371 Z M19.9999242,30.9966221 C22.4885824,30.9966221 24.9999242,25.4503714 24.9999242,19.9979983 C24.9999242,17.23692 22.761348,14.9986238 19.9999242,14.9986238 C17.2385005,14.9986238 14.9999242,17.23692 14.9999242,19.9979983 C14.9999242,25.4503714 17.5112661,30.9966221 19.9999242,30.9966221 Z" id="Combined-Shape" fill="#000000"></path>
    </g>
</svg>