<?xml version="1.0" encoding="UTF-8"?>
<svg width="24px" height="24px" viewBox="0 0 48 48" version="1.1" xmlns="http://www.w3.org/2000/svg" xmlns:xlink="http://www.w3.org/1999/xlink">
    <!-- Generator: Sketch 43.2 (39069) - http://www.bohemiancoding.com/sketch -->
    <title>theicons.co/svg/others-29</title>
    <desc>Created with Sketch.</desc>
    <defs></defs>
    <g id="The-Icons" stroke="none" stroke-width="1" fill="none" fill-rule="evenodd">
        <path d="M30,38 L30,26 L18,26 L18,38 L30,38 Z M15.9914698,44 L14.9957349,44 C14.4458057,44 14,43.5510598 14,43.0093689 C14,42.4433532 13.5480902,42 12.9906311,42 L11.0093689,42 C10.4433532,42 10,42.4519098 10,43.0093689 C10,43.5564793 9.55802831,44 9.0042651,44 L8.0085302,44 C6.8992496,44 6,43.1084602 6,42.0027084 L6,5.99729162 C6,4.89421792 6.90195036,4 8.0085302,4 L9.0042651,4 C9.5541943,4 10,4.44894018 10,4.9906311 C10,5.55664682 10.4519098,6 11.0093689,6 L12.9906311,6 C13.5566468,6 14,5.54809015 14,4.9906311 C14,4.44352065 14.4419717,4 14.9957349,4 L15.9914698,4 C17.1007504,4 18,4.89153983 18,5.99729162 L30,6 C30,4.89421792 30.9019504,4 32.0085302,4 L33.0042651,4 C33.5541943,4 34,4.44894018 34,4.9906311 C34,5.55664682 34.4519098,6 35.0093689,6 L36.9906311,6 C37.5566468,6 38,5.54809015 38,4.9906311 C38,4.44352065 38.4419717,4 38.9957349,4 L39.9914698,4 C41.1007504,4 42,4.89153983 42,5.99729162 L42,42.0027084 C42,43.1057821 41.0980496,44 39.9914698,44 L38.9957349,44 C38.4458057,44 38,43.5510598 38,43.0093689 C38,42.4433532 37.5480902,42 36.9906311,42 L35.0093689,42 C34.4433532,42 34,42.4519098 34,43.0093689 C34,43.5564793 33.5580283,44 33.0042651,44 L32.0085302,44 C30.8992496,44 30,43.1084602 30,42.0027084 L18,42 C18,43.1057821 17.0980496,44 15.9914698,44 Z M18,22 L30,22 L30,10 L18,10 L18,22 Z M10,11.0093689 L10,12.9906311 C10,13.5566468 10.4519098,14 11.0093689,14 L12.9906311,14 C13.5566468,14 14,13.5480902 14,12.9906311 L14,11.0093689 C14,10.4433532 13.5480902,10 12.9906311,10 L11.0093689,10 C10.4433532,10 10,10.4519098 10,11.0093689 Z M10,19.0093689 L10,20.9906311 C10,21.5566468 10.4519098,22 11.0093689,22 L12.9906311,22 C13.5566468,22 14,21.5480902 14,20.9906311 L14,19.0093689 C14,18.4433532 13.5480902,18 12.9906311,18 L11.0093689,18 C10.4433532,18 10,18.4519098 10,19.0093689 Z M10,35.0093689 L10,36.9906311 C10,37.5566468 10.4519098,38 11.0093689,38 L12.9906311,38 C13.5566468,38 14,37.5480902 14,36.9906311 L14,35.0093689 C14,34.4433532 13.5480902,34 12.9906311,34 L11.0093689,34 C10.4433532,34 10,34.4519098 10,35.0093689 Z M10,27.0093689 L10,28.9906311 C10,29.5566468 10.4519098,30 11.0093689,30 L12.9906311,30 C13.5566468,30 14,29.5480902 14,28.9906311 L14,27.0093689 C14,26.4433532 13.5480902,26 12.9906311,26 L11.0093689,26 C10.4433532,26 10,26.4519098 10,27.0093689 Z M34,11.0093689 L34,12.9906311 C34,13.5566468 34.4519098,14 35.0093689,14 L36.9906311,14 C37.5566468,14 38,13.5480902 38,12.9906311 L38,11.0093689 C38,10.4433532 37.5480902,10 36.9906311,10 L35.0093689,10 C34.4433532,10 34,10.4519098 34,11.0093689 Z M34,19.0093689 L34,20.9906311 C34,21.5566468 34.4519098,22 35.0093689,22 L36.9906311,22 C37.5566468,22 38,21.5480902 38,20.9906311 L38,19.0093689 C38,18.4433532 37.5480902,18 36.9906311,18 L35.0093689,18 C34.4433532,18 34,18.4519098 34,19.0093689 Z M34,35.0093689 L34,36.9906311 C34,37.5566468 34.4519098,38 35.0093689,38 L36.9906311,38 C37.5566468,38 38,37.5480902 38,36.9906311 L38,35.0093689 C38,34.4433532 37.5480902,34 36.9906311,34 L35.0093689,34 C34.4433532,34 34,34.4519098 34,35.0093689 Z M34,27.0093689 L34,28.9906311 C34,29.5566468 34.4519098,30 35.0093689,30 L36.9906311,30 C37.5566468,30 38,29.5480902 38,28.9906311 L38,27.0093689 C38,26.4433532 37.5480902,26 36.9906311,26 L35.0093689,26 C34.4433532,26 34,26.4519098 34,27.0093689 Z" id="Rectangle-830" fill="#000000"></path>
    </g>
</svg>