<?xml version="1.0" encoding="UTF-8"?>
<svg width="24px" height="24px" viewBox="0 0 48 48" version="1.1" xmlns="http://www.w3.org/2000/svg" xmlns:xlink="http://www.w3.org/1999/xlink">
    <!-- Generator: Sketch 43.2 (39069) - http://www.bohemiancoding.com/sketch -->
    <title>theicons.co/svg/clothes-21</title>
    <desc>Created with Sketch.</desc>
    <defs></defs>
    <g id="The-Icons" stroke="none" stroke-width="1" fill="none" fill-rule="evenodd">
        <path d="M7.98166709,35.5477713 L8.00941286,39.7809433 L12.2050759,39.8096438 L12.9331986,36.9668256 C13.068922,36.4369192 13.6116069,35.9215064 14.1618225,35.8123448 L16.7074152,35.3073045 L22.4589545,29.5557652 L25.4896966,26.5250232 C25.8774687,26.1372511 26.5951097,26.0056499 27.1108766,26.2281655 C27.1108766,26.2281655 27.2830201,26.3315938 27.8510814,26.5082509 C31.2778789,27.5739246 35.159544,26.7546706 37.8664445,24.0477701 C41.758679,20.1555357 41.7481335,13.8344314 37.8428906,9.92918849 C33.9376477,6.02394557 27.6165433,6.0134001 23.7243089,9.90563452 C20.5700734,13.05987 19.9789306,17.8092297 21.9465789,21.5752852 C23.119016,22.7506876 23.1218384,24.6502406 21.9478062,25.8242728 L17.3285096,30.4435694 C16.1577032,31.6143759 14.2573495,31.613099 13.0833173,30.4461211 L7.98166709,35.5477713 Z M19.5358424,38.1357316 L16.9902496,38.6407719 C16.4474228,38.7484676 15.9215359,39.2684316 15.8123743,39.8186472 L15.3073341,42.3642399 L14.6025827,43.0689913 C14.2133592,43.4582148 13.4514188,43.772998 12.8994397,43.7720771 L6.0147981,43.7605915 C4.91024298,43.7587488 4.01333187,42.8627732 4.01148758,41.757281 L4.00000197,34.8726394 C3.99908207,34.3212429 4.32121451,33.5513696 4.71216046,33.1604237 L17.2990745,20.5735096 C16.0460771,15.9085729 17.2438778,10.7292114 20.8958818,7.07720739 C26.34501,1.62807921 35.194556,1.64284287 40.6618961,7.11018295 C46.1292362,12.577523 46.1439999,21.4270691 40.6948717,26.8761973 C37.0428677,30.5282012 31.8635062,31.726002 27.1985738,30.4730057 L19.5358424,38.1357316 Z M35.0309512,16.9837685 C36.1986216,15.8160982 36.1954579,13.9197669 35.023885,12.748194 C33.8523122,11.5766212 31.9559809,11.5734575 30.7883105,12.7411278 C29.6206402,13.9087982 29.6238039,15.8051295 30.7953767,16.9767023 C31.9669496,18.1482752 33.8632809,18.1514388 35.0309512,16.9837685 Z" id="Shape" fill="#000000" fill-rule="nonzero"></path>
    </g>
</svg>