<?xml version="1.0" encoding="UTF-8"?>
<svg width="24px" height="24px" viewBox="0 0 48 48" version="1.1" xmlns="http://www.w3.org/2000/svg" xmlns:xlink="http://www.w3.org/1999/xlink">
    <!-- Generator: Sketch 43.2 (39069) - http://www.bohemiancoding.com/sketch -->
    <title>theicons.co/svg/ui-36</title>
    <desc>Created with Sketch.</desc>
    <defs></defs>
    <g id="The-Icons" stroke="none" stroke-width="1" fill="none" fill-rule="evenodd">
        <path d="M16,24 C16,24.3975663 15.9613327,24.7861014 15.8875538,25.1620497 L33.8175133,33.6980412 C34.8982164,32.6471664 36.3735313,32 38,32 C41.3137085,32 44,34.6862915 44,38 C44,41.3137085 41.3137085,44 38,44 C34.6862915,44 32,41.3137085 32,38 C32,37.7574051 32.0143975,37.518173 32.0423847,37.2831115 L13.8346671,28.6148865 C12.7949031,29.4798143 11.4581995,30 10,30 C6.6862915,30 4,27.3137085 4,24 C4,20.6862915 6.6862915,18 10,18 C11.459072,18 12.7965027,18.5208084 13.8365333,19.3866664 L32.0426602,10.7191988 C32.014492,10.4833945 32,10.2433897 32,10 C32,6.6862915 34.6862915,4 38,4 C41.3137085,4 44,6.6862915 44,10 C44,13.3137085 41.3137085,16 38,16 C36.3743769,16 34.8997505,15.3535064 33.8191993,14.3035976 L15.8879915,22.8401833 C15.9614857,23.215437 16,23.6032208 16,24 Z M10,26 C11.1045695,26 12,25.1045695 12,24 C12,22.8954305 11.1045695,22 10,22 C8.8954305,22 8,22.8954305 8,24 C8,25.1045695 8.8954305,26 10,26 Z M38,12 C39.1045695,12 40,11.1045695 40,10 C40,8.8954305 39.1045695,8 38,8 C36.8954305,8 36,8.8954305 36,10 C36,11.1045695 36.8954305,12 38,12 Z M38,40 C39.1045695,40 40,39.1045695 40,38 C40,36.8954305 39.1045695,36 38,36 C36.8954305,36 36,36.8954305 36,38 C36,39.1045695 36.8954305,40 38,40 Z" id="Combined-Shape" fill="#ffffff"></path>
    </g>
</svg>