<?xml version="1.0" encoding="UTF-8"?>
<svg width="24px" height="24px" viewBox="0 0 48 48" version="1.1" xmlns="http://www.w3.org/2000/svg" xmlns:xlink="http://www.w3.org/1999/xlink">
    <!-- Generator: Sketch 43.2 (39069) - http://www.bohemiancoding.com/sketch -->
    <title>theicons.co/svg/ui-46</title>
    <desc>Created with Sketch.</desc>
    <defs></defs>
    <g id="The-Icons" stroke="none" stroke-width="1" fill="none" fill-rule="evenodd">
        <path d="M30.4510975,10.5925903 L31.936836,11.4596749 C31.936836,11.4596749 36.372573,10.6855166 36.6302858,10.6619429 C37.9725276,10.4972886 39.4181363,11.2181612 40.0933365,12.3876423 L41.9551268,15.6123577 C42.63317,16.786763 42.5358882,18.4050889 41.7513444,19.4290338 C41.5692149,19.6853979 38.6857045,23.1390312 38.6857045,23.1390312 C38.6857045,23.1390312 38.7037236,23.3940891 38.7037236,24 C38.7037236,24.2919886 38.6786877,24.8729382 38.6786877,24.8729382 C38.6786877,24.8729382 41.5692149,28.3146021 41.7184345,28.5259835 C42.5319619,29.6060414 42.6302616,31.2182746 41.9551268,32.3876423 L40.0933365,35.6123577 C39.4152299,36.7868728 37.9648522,37.5116696 36.6728579,37.3428347 C36.6621799,37.3417859 31.9129818,36.5379326 31.9129818,36.5379326 L30.4510981,37.3999032 C30.4510981,37.3999032 28.8998465,41.6294183 28.7914624,41.864189 C28.2628684,43.1087534 26.9157834,44 25.5655138,44 L21.8419333,44 C20.4857201,44 19.1328387,43.1063345 18.6383858,41.9147129 C18.5075533,41.6289745 16.9520333,37.3842262 16.9520333,37.3842262 L15.4616539,36.5344294 C15.4616539,36.5344294 11.034466,37.3146642 10.7767515,37.3382055 C9.43463016,37.502712 7.98924541,36.7817254 7.31411064,35.6123577 L5.4523204,32.3876423 C4.77421378,31.2131272 4.87171013,29.5946648 5.65645824,28.5706452 C5.83859289,28.3143391 8.72495082,24.8579474 8.72495082,24.8579474 C8.72495082,24.8579474 8.7037236,24.6060829 8.7037236,24 C8.7037236,23.7137165 8.72779195,23.1440553 8.72779195,23.1440553 C8.72779195,23.1440553 5.83859289,19.6856609 5.6893462,19.4742973 C4.87563046,18.3942089 4.77712013,16.7818388 5.4523204,15.6123577 L7.31411064,12.3876423 C7.99215388,11.213237 9.44230614,10.4883226 10.7213403,10.655785 C11.034466,10.6853358 15.5054714,11.4641533 15.5054714,11.4641533 L16.973451,10.5914844 C16.973451,10.5914844 18.5075533,6.3710255 18.6159084,6.13624019 C19.1444345,4.89149752 20.4915328,4 21.8419333,4 L25.5655138,4 C26.9216003,4 28.2744708,4.89341147 28.7689611,6.08481883 C28.8998465,6.37058166 30.4510975,10.5925903 30.4510975,10.5925903 Z M27.1532196,13.5087792 L26.8845805,12.6100644 C26.4939582,11.3032624 25.3865936,8.34059286 25.2686225,8.06328342 C25.2002385,7.90253622 22.2073144,7.90259957 22.1389423,8.0633607 C22.0209961,8.34068395 20.9138475,11.3032563 20.5232728,12.6098932 L20.2546211,13.5086462 L19.3918016,13.8767131 C18.5764802,14.224518 17.8064404,14.6703496 17.0979322,15.2034029 L16.3472801,15.7681636 L15.4333289,15.5510775 C14.105555,15.2356982 10.9841638,14.7129462 10.684817,14.6764294 C10.5112931,14.6552616 9.01481968,17.2473081 9.11991584,17.3869766 C9.30121152,17.6279113 11.314364,20.0691909 12.2511317,21.0611567 L12.8944565,21.7423888 L12.7827854,22.672697 C12.730241,23.1104333 12.7037236,23.5533412 12.7037236,24 C12.7037236,24.4466588 12.730241,24.8895667 12.7827854,25.327303 L12.8944565,26.2576112 L12.2511317,26.9388433 C11.314364,27.9308091 9.30121152,30.3720887 9.11991584,30.6130234 C9.01481968,30.7526919 10.5112931,33.3447384 10.684817,33.3235706 C10.9841638,33.2870538 14.105555,32.7643018 15.4333289,32.4489225 L16.3472801,32.2318364 L17.0979322,32.7965971 C17.8064404,33.3296504 18.5764802,33.775482 19.3918016,34.1232869 L20.2546211,34.4913538 L20.5232728,35.3901068 C20.9138475,36.6967437 22.0209961,39.659316 22.1389423,39.9366393 C22.2073144,40.0974004 25.2002385,40.0974638 25.2686225,39.9367166 C25.3865936,39.6594071 26.4939582,36.6967376 26.8845805,35.3899356 L27.1532196,34.4912208 L28.0159894,34.1231402 C28.8312988,33.7753075 29.6013236,33.3294496 30.309814,32.7963721 L31.0604788,32.2315621 L31.974469,32.4486563 C33.302076,32.7639942 36.4232756,33.2868848 36.722622,33.32343 C36.8251407,33.3359458 38.3927353,30.752632 38.2876571,30.6129601 C38.1063858,30.3720108 36.093257,27.9304955 35.1563699,26.9384056 L34.5130717,26.2572034 L34.6247064,25.326931 C34.6772212,24.8893158 34.7037236,24.4465323 34.7037236,24 C34.7037236,23.5534677 34.6772212,23.1106842 34.6247064,22.673069 L34.5130717,21.7427966 L35.1563699,21.0615944 C36.093257,20.0695045 38.1063858,17.6279892 38.2876571,17.3870399 C38.3927353,17.247368 36.8961521,14.6553849 36.722622,14.67657 C36.4232756,14.7131152 33.302076,15.2360058 31.974469,15.5513437 L31.0604788,15.7684379 L30.309814,15.2036279 C29.6013236,14.6705504 28.8312988,14.2246925 28.0159894,13.8768598 L27.1532196,13.5087792 Z M23.7037236,30 C20.3900151,30 17.7037236,27.3137085 17.7037236,24 C17.7037236,20.6862915 20.3900151,18 23.7037236,18 C27.0174321,18 29.7037236,20.6862915 29.7037236,24 C29.7037236,27.3137085 27.0174321,30 23.7037236,30 Z M23.7037236,26 C24.8082931,26 25.7037236,25.1045695 25.7037236,24 C25.7037236,22.8954305 24.8082931,22 23.7037236,22 C22.5991541,22 21.7037236,22.8954305 21.7037236,24 C21.7037236,25.1045695 22.5991541,26 23.7037236,26 Z" id="Combined-Shape" fill="#000000"></path>
    </g>
</svg>