<?xml version="1.0" encoding="UTF-8"?>
<svg width="24px" height="24px" viewBox="0 0 48 48" version="1.1" xmlns="http://www.w3.org/2000/svg" xmlns:xlink="http://www.w3.org/1999/xlink">
    <!-- Generator: Sketch 43.2 (39069) - http://www.bohemiancoding.com/sketch -->
    <title>theicons.co/svg/ui-02</title>
    <desc>Created with Sketch.</desc>
    <defs></defs>
    <g id="The-Icons" stroke="none" stroke-width="1" fill="none" fill-rule="evenodd">
        <path d="M21.3532146,34.838959 L13.9976352,38.707467 L15.4026472,30.5156187 C15.6079039,29.3188803 15.1494282,27.903414 14.2778435,27.0538289 L8.32683923,21.2535227 L16.550758,20.0585174 C17.7523516,19.8839156 18.9568633,19.0104762 19.4955323,17.9190136 L23.1756541,10.4722774 L26.8508381,17.9190136 C27.3882071,19.0078422 28.591112,19.8834932 29.7956124,20.0585174 L38.010088,21.2622382 L32.0685269,27.0538289 C31.1990456,27.9013637 30.73797,29.3159853 30.9437232,30.5156187 L32.3668618,38.7155457 L24.9931558,34.838959 C23.9184178,34.2739358 22.4305525,34.2725689 21.3532146,34.838959 Z M32.3027406,43.200938 C34.7465134,44.4857054 37.1047255,42.7746881 36.6376519,40.0514406 L34.8861565,29.8394385 C34.9031877,29.9387381 42.2800275,22.6859943 42.2800275,22.6859943 C44.2570812,20.7588432 43.3585346,17.9873168 40.6242386,17.5900004 L30.3708057,16.1000893 C30.4705082,16.114577 25.8523078,6.85756435 25.8523078,6.85756435 C24.6304214,4.38175207 21.716877,4.37987187 20.4940626,6.85756435 L15.908588,16.1487508 C15.9531763,16.058405 5.72213173,17.5900004 5.72213173,17.5900004 C2.98991067,17.9870153 2.08778775,20.7573797 4.06634292,22.6859943 L11.4857967,29.9181744 C11.4136513,29.84785 9.70871844,40.0514406 9.70871844,40.0514406 C9.24199936,42.7726216 11.5980011,44.4866811 14.0436298,43.200938 L23.2145791,38.3794847 C23.1254025,38.4263676 32.3027406,43.200938 32.3027406,43.200938 Z" id="Star-7" fill="#000000" fill-rule="nonzero"></path>
    </g>
</svg>